<svg width="24" height="24" viewBox="0 0 24 24" fill="none" xmlns="http://www.w3.org/2000/svg">
<rect x="0.500069" y="0.5" width="23" height="23" rx="6" fill="#5CD6C0"/>
<rect x="1.62793" y="1.62793" width="20.7441" height="20.7441" rx="5" fill="#5FE1CA"/>
<path d="M14.3338 4.04433C14.3338 3.48867 13.8816 3.03822 13.3237 3.03822H10.6302C10.0723 3.03822 9.62011 3.48867 9.62011 4.04433V7.66624C9.62011 8.2219 9.16788 8.67235 8.61003 8.67235H7.26695C6.37834 8.67235 5.92273 9.73291 6.5363 10.3732L11.2463 15.2881C11.6442 15.7033 12.3097 15.7033 12.7076 15.2881L17.4176 10.3732C18.0312 9.73291 17.5756 8.67235 16.687 8.67235H15.3439C14.7861 8.67235 14.3338 8.2219 14.3338 7.66624V4.04433Z" fill="#483FDD"/>
<rect x="3.52927" y="14.8728" width="17.0807" height="4.27225" rx="0.736338" fill="#7C42D5"/>
<path d="M4.65377 14.121H5.59155V9.57421H4.75323V9.78735C4.75323 10.1426 4.59693 10.4054 4.12094 10.4054H3.65915V11.1514H4.65377V14.121Z" fill="white"/>
<path d="M7.96026 14.1921C9.03303 14.1921 9.74347 13.4319 9.74347 11.8476C9.74347 10.2704 9.03303 9.49607 7.95316 9.49607C6.88039 9.49607 6.14153 10.2704 6.14153 11.8405C6.14153 13.4248 6.88039 14.1921 7.96026 14.1921ZM7.96026 13.4177C7.49137 13.4177 7.10773 12.9914 7.10773 11.8476C7.10773 10.7038 7.49137 10.2704 7.96026 10.2704C8.43626 10.2704 8.78437 10.718 8.78437 11.8547C8.78437 12.9772 8.44336 13.4177 7.96026 13.4177Z" fill="white"/>
<path d="M11.962 14.1921C13.0348 14.1921 13.7453 13.4319 13.7453 11.8476C13.7453 10.2704 13.0348 9.49607 11.9549 9.49607C10.8822 9.49607 10.1433 10.2704 10.1433 11.8405C10.1433 13.4248 10.8822 14.1921 11.962 14.1921ZM11.962 13.4177C11.4932 13.4177 11.1095 12.9914 11.1095 11.8476C11.1095 10.7038 11.4932 10.2704 11.962 10.2704C12.438 10.2704 12.7862 10.718 12.7862 11.8547C12.7862 12.9772 12.4451 13.4177 11.962 13.4177Z" fill="white"/>
<path d="M17.5541 10.5688H16.46L15.1812 11.7979H15.1243V9.0769H14.215V14.121H15.1243V12.9346L15.4938 12.5794L16.5523 14.121H17.5541L16.1048 11.9826L17.5541 10.5688Z" fill="white"/>
<path d="M20.8341 11.7624H19.5766V10.5688H18.781V11.7624H17.5093V12.5012H18.781V13.6948H19.5766V12.5012H20.8341V11.7624Z" fill="white"/>
<path d="M5.58452 15.5996V16.3977C5.50067 16.3045 5.3454 16.2207 5.13423 16.2207C4.72742 16.2207 4.40445 16.5188 4.40445 17.025C4.40445 17.5188 4.7181 17.8355 5.13423 17.8355C5.37645 17.8355 5.52241 17.7206 5.59694 17.6213H5.62489L5.65905 17.8045H5.98201V15.5996H5.58452ZM5.19634 17.4908C4.96032 17.4908 4.80195 17.3045 4.80195 17.025C4.80195 16.7517 4.96032 16.5654 5.19634 16.5654C5.43235 16.5654 5.58452 16.7517 5.58452 17.025C5.58452 17.3045 5.43235 17.4908 5.19634 17.4908Z" fill="white"/>
<path d="M7.08626 17.8355C7.55519 17.8355 7.9061 17.5063 7.9061 17.025C7.9061 16.5499 7.55208 16.2207 7.08626 16.2207C6.62045 16.2207 6.26643 16.5468 6.26643 17.025C6.26643 17.5032 6.62355 17.8355 7.08626 17.8355ZM7.08626 17.4908C6.83162 17.4908 6.66392 17.2859 6.66392 17.025C6.66392 16.7673 6.83162 16.5654 7.08626 16.5654C7.34091 16.5654 7.51171 16.7673 7.51171 17.025C7.51171 17.2859 7.34402 17.4908 7.08626 17.4908Z" fill="white"/>
<path d="M8.43665 17.8045H8.87141L9.16332 16.7921H9.18816L9.47386 17.8045H9.90862L10.3279 16.2518H9.95831L9.69745 17.3542H9.67261L9.3838 16.3511H8.97078L8.67887 17.3511H8.65403L8.39006 16.2518H8.02362L8.43665 17.8045Z" fill="white"/>
<path d="M10.5314 17.8045H10.9289V16.9629C10.9289 16.6865 11.0966 16.5654 11.286 16.5654C11.4723 16.5654 11.6183 16.6896 11.6183 16.9443V17.8045H12.0158V16.8635C12.0158 16.4567 11.7797 16.2207 11.4102 16.2207C11.1773 16.2207 11.0469 16.3139 10.9537 16.435H10.9289L10.8947 16.2518H10.5314V17.8045Z" fill="white"/>
<path d="M12.3631 17.8045H12.7606V15.5996H12.3631V17.8045Z" fill="white"/>
<path d="M13.8643 17.8355C14.3332 17.8355 14.6841 17.5063 14.6841 17.025C14.6841 16.5499 14.3301 16.2207 13.8643 16.2207C13.3984 16.2207 13.0444 16.5468 13.0444 17.025C13.0444 17.5032 13.4015 17.8355 13.8643 17.8355ZM13.8643 17.4908C13.6096 17.4908 13.4419 17.2859 13.4419 17.025C13.4419 16.7673 13.6096 16.5654 13.8643 16.5654C14.1189 16.5654 14.2897 16.7673 14.2897 17.025C14.2897 17.2859 14.122 17.4908 13.8643 17.4908Z" fill="white"/>
<path d="M16.3999 17.5063C16.3254 17.5063 16.2881 17.4691 16.2881 17.3883V16.82C16.2881 16.4039 15.9931 16.2207 15.6297 16.2207C15.2322 16.2207 14.9838 16.4474 14.9528 16.7704H15.3503C15.3751 16.6306 15.462 16.5375 15.6297 16.5375C15.7819 16.5375 15.8906 16.6213 15.8906 16.7921V16.8573L15.4062 16.907C15.1205 16.9349 14.8938 17.0809 14.8938 17.379C14.8938 17.6865 15.1267 17.8355 15.4434 17.8355C15.6887 17.8355 15.8502 17.7517 15.9558 17.6181C16.0086 17.761 16.1235 17.8045 16.2695 17.8045H16.4372V17.5063H16.3999ZM15.8906 17.2051C15.8906 17.4505 15.6794 17.5312 15.5117 17.5312C15.3875 17.5312 15.2912 17.4877 15.2912 17.3635C15.2912 17.2424 15.3999 17.1834 15.5428 17.1679L15.8906 17.1306V17.2051Z" fill="white"/>
<path d="M17.7637 15.5996V16.3977C17.6798 16.3045 17.5245 16.2207 17.3134 16.2207C16.9066 16.2207 16.5836 16.5188 16.5836 17.025C16.5836 17.5188 16.8972 17.8355 17.3134 17.8355C17.5556 17.8355 17.7016 17.7206 17.7761 17.6213H17.804L17.8382 17.8045H18.1612V15.5996H17.7637ZM17.3755 17.4908C17.1395 17.4908 16.9811 17.3045 16.9811 17.025C16.9811 16.7517 17.1395 16.5654 17.3755 16.5654C17.6115 16.5654 17.7637 16.7517 17.7637 17.025C17.7637 17.3045 17.6115 17.4908 17.3755 17.4908Z" fill="white"/>
<path d="M19.132 17.8355C19.4611 17.8355 19.7344 17.6927 19.7344 17.3728C19.7344 17.0809 19.5419 16.9567 19.2717 16.8884L19.1257 16.8511C18.9767 16.8107 18.8711 16.7828 18.8711 16.6741C18.8711 16.5747 18.9549 16.5157 19.0761 16.5157C19.222 16.5157 19.309 16.584 19.3245 16.6958H19.7065C19.6847 16.4412 19.4922 16.2207 19.0729 16.2207C18.7655 16.2207 18.4922 16.3853 18.4922 16.6958C18.4922 17.0002 18.7282 17.084 18.9363 17.1337L19.0823 17.171C19.25 17.2144 19.3555 17.2641 19.3555 17.3821C19.3555 17.4939 19.25 17.5405 19.1288 17.5405C18.9705 17.5405 18.8462 17.4753 18.8245 17.3076H18.4425C18.4643 17.6275 18.6941 17.8355 19.132 17.8355Z" fill="white"/>
</svg>
