<svg width="24" height="24" viewBox="0 0 24 24" fill="none" xmlns="http://www.w3.org/2000/svg">
<circle cx="12" cy="12" r="12" fill="#483FDD"/>
<mask id="mask0_0_1582" style="mask-type:alpha" maskUnits="userSpaceOnUse" x="0" y="0" width="24" height="24">
<circle cx="12" cy="12" r="12" fill="#483FDD"/>
</mask>
<g mask="url(#mask0_0_1582)">
<rect x="5" y="5" width="13.75" height="21.5" rx="1.5" fill="#5CD6C0" stroke="white"/>
</g>
<path d="M8.5 5.5H15.5C15.5 6.60457 14.6046 7.5 13.5 7.5H10.5C9.39543 7.5 8.5 6.60457 8.5 5.5Z" fill="white"/>
<path fill-rule="evenodd" clip-rule="evenodd" d="M8.97972 11.1895C9.39551 9.87279 10.843 9.18744 12.125 9.70025C13.2571 9.19412 14.5775 9.78735 14.9509 10.9699L15.5921 13.0002H16.25C16.8023 13.0002 17.25 13.448 17.25 14.0002C17.25 14.5525 16.8023 15.0002 16.25 15.0002H7.75C7.19772 15.0002 6.75 14.5525 6.75 14.0002C6.75 13.448 7.19772 13.0002 7.75 13.0002H8.40789L8.97972 11.1895ZM11.6387 17.4558C11.3125 17.9383 10.7951 18.2502 10.2127 18.2502C9.90591 18.2502 9.61719 18.1637 9.36494 18.0113C8.37923 17.4158 9.35911 16.2502 10.5107 16.2502H11.9998H12H13.4893C14.6408 16.2502 15.6206 17.4156 14.6351 18.0111C14.3828 18.1636 14.094 18.2502 13.7871 18.2502C13.2047 18.2502 12.6873 17.9383 12.3611 17.4558C12.2788 17.3341 12.1468 17.2502 11.9999 17.2502C11.853 17.2502 11.721 17.3341 11.6387 17.4558Z" fill="#151D51"/>
</svg>
