<svg width="24" height="25" viewBox="0 0 24 25" fill="none" xmlns="http://www.w3.org/2000/svg">
<path fill-rule="evenodd" clip-rule="evenodd" d="M0 12.9957C0 6.36827 5.37254 0.995605 11.9999 0.995605C18.6273 0.995605 24 6.36827 24 12.9957C24 19.6231 18.6273 24.9956 11.9999 24.9956C5.37254 24.9956 0 19.6231 0 12.9957Z" fill="#483FDD"/>
<path fill-rule="evenodd" clip-rule="evenodd" d="M11.9777 18.9956C10.2034 18.9956 8.49275 18.2971 7.28441 17.0792C6.05911 15.8443 5.4571 14.2337 5.5894 12.5442C5.82266 9.5671 8.39893 7.18642 11.582 7.00652C12.6191 6.94801 13.6631 7.12549 14.6007 7.51995C14.9414 7.66334 15.0935 8.0381 14.9404 8.35723C14.7875 8.67637 14.387 8.81895 14.0465 8.67557C13.2969 8.36023 12.4952 8.22421 11.6634 8.27109C9.15354 8.41298 7.12223 10.2898 6.9384 12.637C6.83389 13.9713 7.30864 15.2427 8.27511 16.2168C9.22855 17.1776 10.578 17.7287 11.9777 17.7287C12.0501 17.7287 12.1223 17.7274 12.194 17.7245C12.5643 17.7095 12.8826 17.9806 12.8987 18.3302C12.9147 18.6797 12.6252 18.9752 12.2519 18.9902C12.1612 18.9939 12.0697 18.9956 11.9777 18.9956Z" fill="#5CD6C0"/>
<path fill-rule="evenodd" clip-rule="evenodd" d="M15.2402 18.1384C15.0459 18.1384 14.8534 18.0521 14.7213 17.8854C14.4884 17.5918 14.5318 17.16 14.8182 16.9212C15.9908 15.943 16.6633 14.494 16.6633 12.9457C16.6633 11.9661 16.3931 11.0141 15.8816 10.1929C15.6829 9.87389 15.774 9.45016 16.0851 9.24627C16.3962 9.04251 16.8095 9.13598 17.0081 9.45502C17.6571 10.497 18 11.7041 18 12.9457C18 14.9084 17.1477 16.745 15.6615 17.9848C15.5376 18.0881 15.3883 18.1384 15.2402 18.1384Z" fill="white"/>
<path fill-rule="evenodd" clip-rule="evenodd" d="M20.357 14.2813C20.0019 14.2813 19.714 13.9699 19.714 13.5857C19.714 9.06485 16.3142 5.38687 12.1355 5.38687C10.9071 5.38687 9.73558 5.69459 8.65324 6.30143C8.33829 6.47825 7.95004 6.34506 7.7866 6.00395C7.62316 5.66284 7.74627 5.24306 8.06157 5.06624C9.31062 4.36593 10.7194 3.99561 12.1355 3.99561C17.0234 3.99561 21 8.29764 21 13.5857C21 13.9699 20.7122 14.2813 20.357 14.2813Z" fill="#5CD6C0"/>
<path fill-rule="evenodd" clip-rule="evenodd" d="M11.7636 21.9956C6.93081 21.9956 3 17.959 3 12.9971C3 10.8916 3.72297 8.84332 5.0359 7.2298C5.2609 6.95328 5.6618 6.91626 5.93118 7.14744C6.20056 7.37862 6.23639 7.79031 6.01138 8.06694C4.88913 9.44596 4.27121 11.1969 4.27121 12.9971C4.27121 17.2391 7.63183 20.6902 11.7626 20.6902C13.8772 20.6902 15.9029 19.7663 17.3216 18.1554C17.557 17.888 17.959 17.8672 18.2193 18.1091C18.4796 18.3508 18.4999 18.7636 18.2643 19.031C16.6052 20.9151 14.2358 21.9956 11.7636 21.9956Z" fill="white"/>
</svg>
