<svg width="24" height="24" viewBox="0 0 24 24" fill="none" xmlns="http://www.w3.org/2000/svg">
<circle cx="12" cy="12" r="12" fill="#483FDD"/>
<path fill-rule="evenodd" clip-rule="evenodd" d="M12.0236 14.866C13.9697 14.866 15.5472 9.47117 15.5472 7.52511C15.5472 5.57906 13.9697 4.00146 12.0236 4.00146C10.0775 4.00146 8.49995 5.57906 8.49995 7.52511C8.49995 9.47117 10.0775 14.866 12.0236 14.866ZM12.0237 8.99284C12.8346 8.99284 13.4919 8.33551 13.4919 7.52465C13.4919 6.71379 12.8346 6.05646 12.0237 6.05646C11.2128 6.05646 10.5555 6.71379 10.5555 7.52465C10.5555 8.33551 11.2128 8.99284 12.0237 8.99284Z" fill="white"/>
<circle cx="12.0239" cy="7.52348" r="1.46819" fill="#151D51"/>
<path d="M4.5 14.4994V14.4994C5.50865 15.4622 6.84944 15.9994 8.24384 15.9994H15.7562C17.1506 15.9994 18.4914 15.4622 19.5 14.4994V14.4994" stroke="#5CD6C0" stroke-width="2" stroke-linecap="round"/>
<circle cx="7.49998" cy="18.7506" r="1.75" fill="#5CD6C0"/>
<circle cx="16.5" cy="18.7506" r="1.75" fill="#5CD6C0"/>
</svg>
