<svg width="28" height="25" viewBox="0 0 28 25" fill="none" xmlns="http://www.w3.org/2000/svg">
<ellipse cx="13.4944" cy="12.5" rx="12" ry="11.9104" transform="rotate(90 13.4944 12.5)" fill="#6C1DA0"/>
<ellipse cx="13.4941" cy="12.4998" rx="10.2522" ry="10.1757" transform="rotate(90 13.4941 12.4998)" fill="#7C42D5"/>
<rect x="0.000366211" y="9.42944" width="27.1642" height="6.31579" rx="2.10526" fill="#6C1DA0"/>
<path d="M4.71766 11.0718H4.02882L3.41745 12.6634L2.8044 11.0718H2.11556V13.4297H2.58545V11.663L3.16819 13.2023H3.66503L4.24777 11.6495V13.4297H4.71766V11.0718ZM6.37877 11.028C5.65287 11.028 5.14087 11.5467 5.14087 12.2507C5.14087 12.9547 5.65287 13.4735 6.37877 13.4735C7.10466 13.4735 7.61835 12.9547 7.61835 12.2507C7.61835 11.5467 7.10466 11.028 6.37877 11.028ZM6.37877 11.4794C6.8133 11.4794 7.12656 11.7926 7.12656 12.2507C7.12656 12.7088 6.8133 13.0221 6.37877 13.0221C5.94593 13.0221 5.63098 12.7088 5.63098 12.2507C5.63098 11.7926 5.94593 11.4794 6.37877 11.4794ZM10.1485 11.0718H9.67695V12.6465L8.47948 11.0718H8.0399V13.4297H8.5098L8.51148 11.855L9.70727 13.4297H10.1485V11.0718ZM12.4463 12.9985H11.1545V12.4562H12.3739V12.0251H11.1545V11.503H12.4328V11.0718H10.6846V13.4297H12.4463V12.9985ZM14.9441 11.0718H14.4085L13.8156 12.0722L13.2228 11.0718H12.6704L13.5782 12.4983V13.4297H14.0481V12.5L14.9441 11.0718ZM15.9807 11.0718V13.4297H17.0013C17.5672 13.4297 17.8889 13.2074 17.8889 12.7543C17.8889 12.5 17.7121 12.2979 17.4965 12.2255C17.6935 12.1531 17.8384 11.9627 17.8384 11.7253C17.8384 11.2756 17.4931 11.0718 16.9441 11.0718H15.9807ZM16.9777 12.4495C17.2371 12.4495 17.4005 12.5101 17.4005 12.7307C17.4005 12.9564 17.2371 13.0171 16.9777 13.0171L16.4506 13.0154V12.4495H16.9777ZM16.9306 11.4861C17.163 11.4861 17.3483 11.5366 17.3483 11.759C17.3483 11.988 17.1664 12.0368 16.9323 12.0368H16.4506V11.4861H16.9306ZM19.5316 11.0718H18.9589L18.041 13.4297H18.5311L18.7366 12.8806H19.7421L19.9476 13.4297H20.4495L19.5316 11.0718ZM19.2402 11.5366L19.5804 12.4478H18.8983L19.2402 11.5366ZM21.7702 11.028C21.0443 11.028 20.5323 11.5417 20.5323 12.2507C20.5323 12.9598 21.0443 13.4735 21.7702 13.4735C22.2014 13.4735 22.5567 13.2815 22.7656 12.975L22.3816 12.6987C22.2401 12.9042 22.0279 13.0221 21.7668 13.0221C21.3508 13.0221 21.0241 12.724 21.0224 12.2507C21.0224 11.7926 21.3391 11.4794 21.7668 11.4794C22.0296 11.4794 22.2435 11.6006 22.3765 11.8044L22.7807 11.5568C22.5887 11.2267 22.2047 11.028 21.7702 11.028ZM24.7138 13.4297H25.3235L24.2608 12.2221L25.2494 11.0718H24.6599L23.8801 12.0267H23.6578V11.0718H23.1879V13.4297H23.6578V12.4596H23.8751L24.7138 13.4297Z" fill="white"/>
<path fill-rule="evenodd" clip-rule="evenodd" d="M8.12239 17.159C8.06214 17.0723 7.98504 16.9986 7.89567 16.9423C7.80631 16.8859 7.70651 16.8481 7.6022 16.8311C7.49789 16.814 7.39122 16.818 7.28851 16.843C7.1858 16.8679 7.08916 16.9132 7.00434 16.9761C6.91952 17.039 6.84825 17.1184 6.79477 17.2094C6.74129 17.3004 6.70669 17.4012 6.69303 17.5058C6.67937 17.6104 6.68694 17.7167 6.71527 17.8183C6.7436 17.92 6.79211 18.0149 6.85794 18.0974C6.91685 18.1784 6.99186 18.2464 7.07826 18.2972C7.16467 18.348 7.26063 18.3805 7.36017 18.3927C7.45971 18.4048 7.5607 18.3964 7.65683 18.3679C7.75296 18.3394 7.84219 18.2915 7.91894 18.227C7.94935 18.2043 7.97826 18.1796 8.0055 18.1531L7.56787 17.5712L7.34363 17.7384L7.56527 18.0339C7.48608 18.0714 7.3956 18.0776 7.31205 18.0511C7.2285 18.0246 7.15811 17.9676 7.11508 17.8913C7.05321 17.7952 7.0301 17.6793 7.05042 17.5669C7.07073 17.4544 7.13295 17.3538 7.22456 17.2854C7.31616 17.2169 7.43036 17.1855 7.54417 17.1977C7.65798 17.2098 7.76296 17.2646 7.83798 17.3508C7.87562 17.398 7.90281 17.4525 7.91773 17.5109C7.93266 17.5693 7.93499 17.6302 7.92456 17.6896L8.28299 17.744C8.29808 17.6407 8.2916 17.5354 8.26397 17.4347C8.23633 17.3341 8.18813 17.2402 8.12239 17.159ZM9.76733 18.6362L9.4721 18.4253L8.95265 19.1473C8.93209 19.1849 8.90376 19.2176 8.86956 19.2435C8.83536 19.2693 8.79607 19.2876 8.75426 19.2971C8.71245 19.3066 8.66909 19.3072 8.62704 19.2988C8.585 19.2903 8.54524 19.2731 8.51037 19.2482C8.4755 19.2232 8.44633 19.1912 8.42478 19.1542C8.40323 19.1172 8.3898 19.0761 8.38537 19.0335C8.38094 18.9909 8.38561 18.9479 8.39908 18.9073C8.41255 18.8666 8.4345 18.8293 8.4635 18.7978L8.98296 18.0758L8.68773 17.8645L8.15875 18.599C8.05622 18.7423 8.01491 18.9203 8.04389 19.0939C8.07288 19.2676 8.16979 19.4226 8.31329 19.5249C8.4568 19.6272 8.63515 19.6685 8.80912 19.6395C8.98309 19.6106 9.13842 19.5139 9.24095 19.3707L9.76733 18.6362ZM10.8417 19.0864L10.4409 18.9257L9.33228 20.109L9.68291 20.2495L9.90846 19.998L10.4669 20.2218L10.4543 20.5588L10.8119 20.7022L10.8417 19.0864ZM10.5032 19.3365L10.4825 19.8775L10.1409 19.7405L10.5032 19.3365ZM11.6746 19.3594L11.3846 20.8483L11.7413 20.917L11.8495 20.3596L11.9019 20.3696L12.1876 21.0025L12.6127 21.0842L12.2941 20.4361C12.4089 20.4522 12.5256 20.4233 12.6196 20.3554C12.7135 20.2875 12.7774 20.1859 12.7979 20.0719C12.8126 20.0015 12.8114 19.9287 12.7945 19.8587C12.7776 19.7888 12.7453 19.7235 12.7001 19.6675C12.6548 19.6115 12.5977 19.5662 12.5328 19.5349C12.4679 19.5036 12.3969 19.4871 12.3248 19.4865L11.6746 19.3594ZM12.2577 19.8057C12.2831 19.8035 12.3088 19.8072 12.3325 19.8166C12.3563 19.8259 12.3775 19.8407 12.3946 19.8596C12.4117 19.8786 12.4241 19.9012 12.4309 19.9258C12.4378 19.9504 12.4388 19.9762 12.4339 20.0012C12.429 20.0262 12.4184 20.0498 12.4028 20.07C12.3873 20.0902 12.3672 20.1065 12.3443 20.1177C12.3213 20.1289 12.2961 20.1346 12.2705 20.1343C12.245 20.1341 12.2198 20.128 12.1971 20.1164L11.9079 20.0607L11.9685 19.75L12.2577 19.8057ZM14.1589 19.6912L13.726 19.6796L13.1009 21.1753L13.4793 21.1857L13.6035 20.8712L14.2061 20.888L14.3121 21.2086L14.6983 21.219L14.1589 19.6912ZM13.9286 20.0438L14.0983 20.5584L13.7295 20.5484L13.9286 20.0438ZM16.3185 19.3456L15.9636 19.4294L16.177 20.3303L15.2874 19.5889L14.9485 19.6688L15.2982 21.1455L15.6523 21.0621L15.4389 20.1613L16.3285 20.9027L16.6687 20.8228L16.3185 19.3456ZM17.6211 18.6975L16.5099 19.2834L16.6666 19.5785L17.0631 19.3694L17.6142 20.4063L17.9332 20.2378L17.3826 19.2009L17.7778 18.9922L17.6211 18.6975ZM19.4954 18.6803L18.892 19.1987L18.7115 18.9905L19.2768 18.5053L19.0656 18.2612L18.5003 18.7464L18.3301 18.5493L18.9301 18.0343L18.7184 17.7894L17.8449 18.539L18.8293 19.677L19.7058 18.9244L19.4954 18.6803ZM20.6391 17.3158L20.1452 17.9427L19.9288 17.7721L20.3911 17.1849L20.1357 16.9853L19.6729 17.5725L19.4664 17.4113L19.9578 16.7879L19.7015 16.5874L18.9864 17.4947L20.1798 18.4271L20.8954 17.5167L20.6391 17.3158Z" fill="white"/>
<path fill-rule="evenodd" clip-rule="evenodd" d="M6.43608 6.8575C6.36635 6.93853 6.31513 7.03279 6.28575 7.13413C6.25637 7.23548 6.24948 7.34165 6.26554 7.44576C6.28159 7.54986 6.32023 7.64957 6.37894 7.73841C6.43765 7.82725 6.51511 7.90322 6.60632 7.96141C6.69429 8.02474 6.79475 8.07017 6.90155 8.09493C7.00836 8.11968 7.11927 8.12323 7.22752 8.10537C7.33576 8.08751 7.43908 8.04862 7.53115 7.99105C7.62321 7.93349 7.70211 7.85848 7.76301 7.77059C7.82555 7.69158 7.87023 7.60088 7.8942 7.50428C7.91817 7.40768 7.92092 7.30731 7.90224 7.2096C7.88355 7.11189 7.84385 7.01901 7.7857 6.93688C7.72755 6.85475 7.65223 6.78519 7.56454 6.73267C7.53258 6.71042 7.49897 6.69047 7.46398 6.67296L7.01728 7.2577L7.25341 7.41954L7.47925 7.12289C7.54089 7.18634 7.57488 7.27011 7.5742 7.35692C7.57352 7.44373 7.53824 7.52696 7.47562 7.58943C7.43993 7.63646 7.39453 7.6759 7.34226 7.70528C7.28999 7.73466 7.23197 7.75335 7.17184 7.76018C7.1117 7.76701 7.05073 7.76183 6.99275 7.74497C6.93477 7.72812 6.88102 7.69994 6.83486 7.6622C6.78393 7.63294 6.73997 7.5937 6.70583 7.54702C6.6717 7.50035 6.64817 7.44729 6.63675 7.3913C6.62534 7.33532 6.6263 7.27765 6.63959 7.22207C6.65287 7.16648 6.67817 7.11422 6.71385 7.06868C6.74939 7.01877 6.79547 6.97665 6.8491 6.94506C6.90274 6.91347 6.9627 6.89313 7.02509 6.88537L6.96928 6.53146C6.86197 6.54795 6.7593 6.58538 6.66761 6.64145C6.57592 6.69752 6.49713 6.77104 6.43608 6.8575ZM8.41747 5.01632L8.12599 5.24709L8.71979 5.92261C8.751 5.95052 8.77519 5.98489 8.79055 6.02312C8.80591 6.06135 8.81202 6.10244 8.80843 6.14327C8.80484 6.1841 8.79164 6.22359 8.76982 6.25877C8.74801 6.29395 8.71814 6.32389 8.68251 6.34631C8.65235 6.37579 8.61573 6.39841 8.5753 6.41252C8.53488 6.42663 8.49168 6.43187 8.44886 6.42787C8.40605 6.42386 8.3647 6.41071 8.32783 6.38937C8.29097 6.36802 8.25951 6.33903 8.23577 6.30451L7.64242 5.629L7.35138 5.85934L7.95405 6.54568C8.0078 6.61718 8.07721 6.67644 8.15739 6.7193C8.23756 6.76216 8.32653 6.78755 8.41801 6.79369C8.50948 6.79982 8.60121 6.78656 8.68674 6.75482C8.77226 6.72308 8.84949 6.67364 8.91294 6.61001C8.99014 6.56336 9.05542 6.50057 9.10391 6.42629C9.1524 6.35202 9.18287 6.26819 9.19304 6.18101C9.20321 6.09383 9.19283 6.00556 9.16266 5.92274C9.13249 5.83993 9.08333 5.7647 9.0188 5.70265L8.41747 5.01632ZM9.77811 4.29604L9.37429 4.48463L9.5201 6.08503L9.87457 5.92012L9.83691 5.58699L10.4018 5.3244L10.6548 5.55732L11.0165 5.38817L9.77811 4.29604ZM9.73598 4.71153L10.1417 5.08498L9.79621 5.24566L9.73598 4.71153ZM10.8342 3.88167L11.1916 5.34655L11.5606 5.26346L11.4267 4.71456L11.4809 4.70252L12.0223 5.16003L12.4621 5.06202L11.8814 4.60204C11.9971 4.57118 12.0958 4.49815 12.1565 4.39845C12.2172 4.29875 12.2352 4.18021 12.2065 4.06795C12.1898 3.99781 12.1572 3.93208 12.111 3.87545C12.0648 3.81882 12.0062 3.7727 11.9394 3.74037C11.8725 3.70804 11.7991 3.69032 11.7243 3.68846C11.6495 3.68659 11.5753 3.70063 11.5068 3.72959L10.8342 3.88167ZM11.5799 4.04967C11.6029 4.03691 11.6287 4.02951 11.6552 4.02806C11.6818 4.02661 11.7083 4.03116 11.7327 4.04133C11.7571 4.0515 11.7786 4.06701 11.7957 4.08663C11.8127 4.10625 11.8248 4.12943 11.8308 4.15432C11.8369 4.1792 11.8368 4.20511 11.8306 4.22996C11.8244 4.25481 11.8123 4.27792 11.7952 4.29743C11.778 4.31695 11.7563 4.33233 11.7319 4.34235C11.7075 4.35237 11.6809 4.35675 11.6544 4.35514L11.3548 4.42201L11.2803 4.11654L11.5799 4.04967ZM13.6323 3.53653L13.1813 3.53296L12.5625 5.03315L12.9572 5.03626L13.0795 4.72159L13.708 4.72355L13.8254 5.03925L14.2277 5.04243L13.6323 3.53653ZM13.4002 3.89204L13.5885 4.3988L13.2041 4.39576L13.4002 3.89204ZM16.2234 3.94831L15.8553 3.85939L15.6141 4.75064L15.1538 3.69088L14.8022 3.60683L14.4068 5.06835L14.774 5.15726L15.0152 4.26558L15.4755 5.32534L15.828 5.40983L16.2234 3.94831ZM17.9127 4.71934L16.7444 4.15109L16.5834 4.44696L17.0003 4.64978L16.4352 5.6907L16.7705 5.85374L17.3361 4.81283L17.7516 5.01478L17.9127 4.71934ZM18.4977 6.63669L17.8497 6.1392L18.0329 5.92563L18.6391 6.39226L18.8538 6.14197L18.2477 5.67534L18.4209 5.47331L19.0644 5.96862L19.28 5.71747L18.3433 4.99624L17.3417 6.16529L18.282 6.88913L18.4977 6.63669ZM19.501 7.77643L18.9814 7.15912L19.2062 6.98888L19.6935 7.56681L19.9588 7.3655L19.4716 6.78758L19.6856 6.625L20.2026 7.23885L20.4688 7.03669L19.7157 6.14319L18.4777 7.08375L19.2329 7.98029L19.501 7.77643Z" fill="white"/>
</svg>
