<svg width="24" height="25" viewBox="0 0 24 25" fill="none" xmlns="http://www.w3.org/2000/svg">
<mask id="mask0_0_677" style="mask-type:alpha" maskUnits="userSpaceOnUse" x="0" y="1" width="24" height="24">
<path fill-rule="evenodd" clip-rule="evenodd" d="M24 1H0V25H24V1Z" fill="white"/>
</mask>
<g mask="url(#mask0_0_677)">
<path fill-rule="evenodd" clip-rule="evenodd" d="M12 25C18.6274 25 24 19.6274 24 13C24 6.37253 18.6274 1 12 1C5.3726 1 0 6.37253 0 13C0 19.6274 5.3726 25 12 25Z" fill="#483FDD"/>
</g>
<path fill-rule="evenodd" clip-rule="evenodd" d="M10.6253 19.0376C10.6253 19.6991 11.152 20.2353 11.8017 20.2353C12.4513 20.2353 12.978 19.6991 12.978 19.0376C12.978 18.3761 12.4513 17.8398 11.8017 17.8398C11.152 17.8398 10.6253 18.3761 10.6253 19.0376Z" fill="white"/>
<path fill-rule="evenodd" clip-rule="evenodd" d="M5.79587 9.7246L6.10321 9.41649L6.10272 9.41607C6.11558 9.40322 6.12869 9.39097 6.14147 9.37821C7.60091 7.93466 9.47243 7.16193 11.3735 7.05976C11.6629 7.04421 11.9532 7.04421 12.2427 7.05976C14.1431 7.16184 16.0142 7.93432 17.4734 9.37711C17.4866 9.39012 17.5002 9.4028 17.5134 9.41607L17.5129 9.41649L17.8202 9.7246C18.1615 10.0666 18.1615 10.6263 17.8202 10.9684L15.9586 12.834C15.9484 12.8454 15.9389 12.857 15.928 12.868L12.4302 16.3736C12.2591 16.545 12.0335 16.6304 11.8081 16.63C11.5826 16.6304 11.357 16.545 11.1859 16.3736L7.68814 12.868C7.67735 12.8572 7.66789 12.8456 7.65777 12.8343L5.79587 10.9684C5.45458 10.6263 5.45458 10.0666 5.79587 9.7246Z" fill="#5CD6C0"/>
<path fill-rule="evenodd" clip-rule="evenodd" d="M5.79587 9.7246L6.10321 9.41649L6.10272 9.41607C6.11558 9.40322 6.12869 9.39097 6.14147 9.37821C7.60091 7.93466 9.47243 7.16193 11.3735 7.05976C11.6629 7.04421 11.9532 7.04421 12.2427 7.05976C14.1431 7.16184 16.0142 7.93432 17.4734 9.37711C17.4866 9.39012 17.5002 9.4028 17.5134 9.41607L17.5129 9.41649L17.8202 9.7246C18.1615 10.0666 18.1615 10.6263 17.8202 10.9684L15.9586 12.834C15.9484 12.8454 15.9389 12.857 15.928 12.868L12.4302 16.3736C12.2591 16.545 12.0335 16.6304 11.8081 16.63C11.5826 16.6304 11.357 16.545 11.1859 16.3736L7.68814 12.868C7.67735 12.8572 7.66789 12.8456 7.65777 12.8343L5.79587 10.9684C5.45458 10.6263 5.45458 10.0666 5.79587 9.7246Z" fill="#5CD6C0"/>
<mask id="mask1_0_677" style="mask-type:alpha" maskUnits="userSpaceOnUse" x="5" y="7" width="13" height="10">
<path fill-rule="evenodd" clip-rule="evenodd" d="M12.2358 7.06125C14.1081 7.1657 15.9514 7.95609 17.3891 9.43224C17.4021 9.44564 17.4154 9.4587 17.4283 9.47218L17.4278 9.47262L17.7306 9.78787C18.0669 10.1378 18.0669 10.7105 17.7306 11.0605L15.8967 12.9693C15.8866 12.981 15.8772 12.993 15.8666 13.0042L12.4206 16.5909C12.252 16.7664 12.0297 16.8538 11.8077 16.8534C11.5855 16.8538 11.3633 16.7664 11.1948 16.5909L7.74883 13.0042C7.7382 12.9932 7.72888 12.9812 7.71891 12.9697L5.88463 11.0605C5.5484 10.7105 5.5484 10.1378 5.88463 9.78787L6.18741 9.47262L6.187 9.47218C6.19959 9.45904 6.21251 9.4465 6.22511 9.43353C7.6629 7.95652 9.50666 7.16579 11.3795 7.06125C11.5221 7.05329 11.6649 7.04932 11.8077 7.04932C11.9504 7.04932 12.0932 7.05329 12.2358 7.06125Z" fill="white"/>
</mask>
<g mask="url(#mask1_0_677)">
<path fill-rule="evenodd" clip-rule="evenodd" d="M6.61288 11.6295L6.87846 11.3531L6.87805 11.3527C6.88909 11.3412 6.90045 11.3301 6.91149 11.3187C8.17242 10.0234 9.78952 9.32988 11.432 9.23822C11.6821 9.2243 11.9328 9.2243 12.1829 9.23822C13.8249 9.32979 15.4415 10.023 16.7023 11.3176C16.7137 11.3293 16.7254 11.3407 16.7368 11.3527L16.7364 11.3531L17.0019 11.6295C17.2968 11.9364 17.2968 12.4385 17.0019 12.7455L15.3936 14.4197C15.3847 14.4298 15.3765 14.4404 15.3671 14.4502L12.345 17.5959C12.1972 17.7496 12.0022 17.8263 11.8074 17.826C11.6126 17.8263 11.4177 17.7496 11.2699 17.5959L8.24781 14.4502C8.23849 14.4405 8.23023 14.4301 8.22156 14.4199L6.61288 12.7455C6.31811 12.4385 6.31811 11.9364 6.61288 11.6295Z" fill="white"/>
</g>
<mask id="mask2_0_677" style="mask-type:alpha" maskUnits="userSpaceOnUse" x="5" y="7" width="13" height="10">
<path fill-rule="evenodd" clip-rule="evenodd" d="M12.2358 7.06125C14.1081 7.1657 15.9514 7.95609 17.3891 9.43224C17.4021 9.44564 17.4154 9.4587 17.4283 9.47218L17.4278 9.47262L17.7306 9.78787C18.0669 10.1378 18.0669 10.7105 17.7306 11.0605L15.8967 12.9693C15.8866 12.981 15.8772 12.993 15.8666 13.0042L12.4206 16.5909C12.252 16.7664 12.0297 16.8538 11.8077 16.8534C11.5855 16.8538 11.3633 16.7664 11.1948 16.5909L7.74883 13.0042C7.7382 12.9932 7.72888 12.9812 7.71891 12.9697L5.88463 11.0605C5.5484 10.7105 5.5484 10.1378 5.88463 9.78787L6.18741 9.47262L6.187 9.47218C6.19959 9.45904 6.21251 9.4465 6.22511 9.43353C7.6629 7.95652 9.50666 7.16579 11.3795 7.06125C11.5221 7.05329 11.6649 7.04932 11.8077 7.04932C11.9504 7.04932 12.0932 7.05329 12.2358 7.06125Z" fill="white"/>
</mask>
<g mask="url(#mask2_0_677)">
<path fill-rule="evenodd" clip-rule="evenodd" d="M8.12356 13.4312L8.31195 13.2351L8.31163 13.2348C8.31947 13.2267 8.32749 13.2188 8.33534 13.2108C9.22962 12.292 10.3766 11.8002 11.5415 11.7352C11.7189 11.7253 11.8968 11.7253 12.074 11.7352C13.2387 11.8002 14.3853 12.2917 15.2796 13.21C15.2877 13.2183 15.2959 13.2264 15.3039 13.2348L15.3037 13.2351L15.492 13.4312C15.7011 13.6489 15.7011 14.0051 15.492 14.2227L14.3513 15.4101C14.345 15.4174 14.3392 15.4249 14.3325 15.4318L12.189 17.6628C12.0842 17.772 11.946 17.8264 11.8078 17.8261C11.6696 17.8264 11.5314 17.772 11.4266 17.6628L9.28318 15.4318C9.27656 15.4249 9.27067 15.4176 9.26445 15.4104L8.12356 14.2227C7.9144 14.0051 7.9144 13.6489 8.12356 13.4312Z" fill="#5CD6C0"/>
</g>
<mask id="mask3_0_677" style="mask-type:alpha" maskUnits="userSpaceOnUse" x="0" y="0" width="24" height="25">
<path fill-rule="evenodd" clip-rule="evenodd" d="M24 0.995605H-2.28882e-05V24.9956H24V0.995605Z" fill="white"/>
</mask>
<g mask="url(#mask3_0_677)">
<path fill-rule="evenodd" clip-rule="evenodd" d="M11.9999 24.9956C18.6274 24.9956 24 19.623 24 12.9956C24 6.36814 18.6274 0.995605 11.9999 0.995605C5.37258 0.995605 -2.28882e-05 6.36814 -2.28882e-05 12.9956C-2.28882e-05 19.623 5.37258 24.9956 11.9999 24.9956Z" fill="#483FDD"/>
<path fill-rule="evenodd" clip-rule="evenodd" d="M11.995 9.83561C10.3823 9.83561 9.07495 8.52821 9.07495 6.91554C9.07495 5.30286 10.3823 3.99561 11.995 3.99561C13.6076 3.99561 14.915 5.30286 14.915 6.91554C14.915 8.52821 13.6076 9.83561 11.995 9.83561Z" fill="#5CD6C0"/>
<path fill-rule="evenodd" clip-rule="evenodd" d="M4.72507 12.7522C4.67945 12.7522 4.63302 12.7483 4.58645 12.7401C4.17878 12.668 3.90973 12.2965 3.9858 11.9102C4.31576 10.2336 5.25238 8.69352 6.62303 7.57364C6.93715 7.31699 7.41147 7.3501 7.68243 7.64763C7.95339 7.94516 7.91843 8.39444 7.60431 8.65109C6.49097 9.56076 5.73039 10.8109 5.46257 12.171C5.39524 12.5133 5.07975 12.7522 4.72507 12.7522Z" fill="white"/>
<path fill-rule="evenodd" clip-rule="evenodd" d="M19.2906 12.7522C18.9492 12.7522 18.6432 12.5196 18.5711 12.1814C18.2778 10.8055 17.5077 9.55848 16.4024 8.66959C16.0891 8.41758 16.045 7.96604 16.3036 7.66115C16.5625 7.35599 17.026 7.31301 17.3393 7.5649C18.7016 8.66048 19.6506 10.1965 20.0116 11.8902C20.0941 12.2775 19.8387 12.6568 19.4409 12.7371C19.3905 12.7473 19.3402 12.7522 19.2906 12.7522Z" fill="white"/>
<path fill-rule="evenodd" clip-rule="evenodd" d="M11.759 21.0226C10.9259 21.0226 10.0915 20.8667 9.29615 20.5545C8.93764 20.4138 8.75037 19.979 8.87789 19.5834C9.00528 19.1878 9.39937 18.9811 9.75776 19.1218C11.0511 19.6292 12.4704 19.629 13.7542 19.1214C14.112 18.9799 14.5068 19.1853 14.6352 19.5806C14.7634 19.976 14.5772 20.4112 14.219 20.5529C13.4271 20.866 12.5937 21.0226 11.759 21.0226Z" fill="white"/>
<path fill-rule="evenodd" clip-rule="evenodd" d="M18.0811 19.5629C16.469 19.5629 15.1621 18.256 15.1621 16.6441C15.1621 15.032 16.469 13.7251 18.0811 13.7251C19.6931 13.7251 21 15.032 21 16.6441C21 18.256 19.6931 19.5629 18.0811 19.5629Z" fill="#5CD6C0"/>
<path fill-rule="evenodd" clip-rule="evenodd" d="M5.91892 19.5629C4.30687 19.5629 3 18.256 3 16.6441C3 15.032 4.30687 13.7251 5.91892 13.7251C7.53097 13.7251 8.83784 15.032 8.83784 16.6441C8.83784 18.256 7.53097 19.5629 5.91892 19.5629Z" fill="#5CD6C0"/>
</g>
</svg>
