<svg width="216" height="25" viewBox="0 0 216 25" fill="none" xmlns="http://www.w3.org/2000/svg">
<ellipse cx="13.4944" cy="12.5" rx="12" ry="11.9104" transform="rotate(90 13.4944 12.5)" fill="#6C1DA0"/>
<ellipse cx="13.4941" cy="12.4998" rx="10.2522" ry="10.1757" transform="rotate(90 13.4941 12.4998)" fill="#7C42D5"/>
<rect x="0.000366211" y="9.42944" width="27.1642" height="6.31579" rx="2.10526" fill="#6C1DA0"/>
<path d="M4.71766 11.0718H4.02882L3.41745 12.6634L2.8044 11.0718H2.11556V13.4297H2.58545V11.663L3.16819 13.2023H3.66503L4.24777 11.6495V13.4297H4.71766V11.0718ZM6.37877 11.028C5.65287 11.028 5.14087 11.5467 5.14087 12.2507C5.14087 12.9547 5.65287 13.4735 6.37877 13.4735C7.10466 13.4735 7.61835 12.9547 7.61835 12.2507C7.61835 11.5467 7.10466 11.028 6.37877 11.028ZM6.37877 11.4794C6.8133 11.4794 7.12656 11.7926 7.12656 12.2507C7.12656 12.7088 6.8133 13.0221 6.37877 13.0221C5.94593 13.0221 5.63098 12.7088 5.63098 12.2507C5.63098 11.7926 5.94593 11.4794 6.37877 11.4794ZM10.1485 11.0718H9.67695V12.6465L8.47948 11.0718H8.0399V13.4297H8.5098L8.51148 11.855L9.70727 13.4297H10.1485V11.0718ZM12.4463 12.9985H11.1545V12.4562H12.3739V12.0251H11.1545V11.503H12.4328V11.0718H10.6846V13.4297H12.4463V12.9985ZM14.9441 11.0718H14.4085L13.8156 12.0722L13.2228 11.0718H12.6704L13.5782 12.4983V13.4297H14.0481V12.5L14.9441 11.0718ZM15.9807 11.0718V13.4297H17.0013C17.5672 13.4297 17.8889 13.2074 17.8889 12.7543C17.8889 12.5 17.7121 12.2979 17.4965 12.2255C17.6935 12.1531 17.8384 11.9627 17.8384 11.7253C17.8384 11.2756 17.4931 11.0718 16.9441 11.0718H15.9807ZM16.9777 12.4495C17.2371 12.4495 17.4005 12.5101 17.4005 12.7307C17.4005 12.9564 17.2371 13.0171 16.9777 13.0171L16.4506 13.0154V12.4495H16.9777ZM16.9306 11.4861C17.163 11.4861 17.3483 11.5366 17.3483 11.759C17.3483 11.988 17.1664 12.0368 16.9323 12.0368H16.4506V11.4861H16.9306ZM19.5316 11.0718H18.9589L18.041 13.4297H18.5311L18.7366 12.8806H19.7421L19.9476 13.4297H20.4495L19.5316 11.0718ZM19.2402 11.5366L19.5804 12.4478H18.8983L19.2402 11.5366ZM21.7702 11.028C21.0443 11.028 20.5323 11.5417 20.5323 12.2507C20.5323 12.9598 21.0443 13.4735 21.7702 13.4735C22.2014 13.4735 22.5567 13.2815 22.7656 12.975L22.3816 12.6987C22.2401 12.9042 22.0279 13.0221 21.7668 13.0221C21.3508 13.0221 21.0241 12.724 21.0224 12.2507C21.0224 11.7926 21.3391 11.4794 21.7668 11.4794C22.0296 11.4794 22.2435 11.6006 22.3765 11.8044L22.7807 11.5568C22.5887 11.2267 22.2047 11.028 21.7702 11.028ZM24.7138 13.4297H25.3235L24.2608 12.2221L25.2494 11.0718H24.6599L23.8801 12.0267H23.6578V11.0718H23.1879V13.4297H23.6578V12.4596H23.8751L24.7138 13.4297Z" fill="white"/>
<path fill-rule="evenodd" clip-rule="evenodd" d="M8.12239 17.159C8.06214 17.0723 7.98504 16.9986 7.89567 16.9423C7.80631 16.8859 7.70651 16.8481 7.6022 16.8311C7.4979 16.814 7.39122 16.818 7.28851 16.843C7.1858 16.8679 7.08916 16.9132 7.00434 16.9761C6.91952 17.039 6.84825 17.1184 6.79477 17.2094C6.74129 17.3004 6.70669 17.4012 6.69303 17.5058C6.67937 17.6104 6.68694 17.7167 6.71527 17.8183C6.7436 17.92 6.79211 18.0149 6.85794 18.0974C6.91685 18.1784 6.99186 18.2464 7.07826 18.2972C7.16467 18.348 7.26063 18.3805 7.36017 18.3927C7.45971 18.4048 7.5607 18.3964 7.65683 18.3679C7.75296 18.3394 7.84219 18.2915 7.91894 18.227C7.94935 18.2043 7.97826 18.1796 8.0055 18.1531L7.56787 17.5712L7.34363 17.7384L7.56527 18.0339C7.48608 18.0714 7.3956 18.0776 7.31205 18.0511C7.2285 18.0246 7.15811 17.9676 7.11508 17.8913C7.05321 17.7952 7.0301 17.6793 7.05042 17.5669C7.07073 17.4544 7.13295 17.3538 7.22456 17.2854C7.31616 17.2169 7.43036 17.1855 7.54417 17.1977C7.65798 17.2098 7.76296 17.2646 7.83798 17.3508C7.87562 17.398 7.90281 17.4525 7.91773 17.5109C7.93266 17.5693 7.93499 17.6302 7.92456 17.6896L8.28299 17.744C8.29808 17.6407 8.2916 17.5354 8.26397 17.4347C8.23633 17.3341 8.18813 17.2402 8.12239 17.159ZM9.76733 18.6362L9.4721 18.4253L8.95265 19.1473C8.93209 19.1849 8.90376 19.2176 8.86956 19.2435C8.83536 19.2693 8.79607 19.2876 8.75426 19.2971C8.71245 19.3066 8.66909 19.3072 8.62704 19.2988C8.585 19.2903 8.54524 19.2731 8.51037 19.2482C8.4755 19.2232 8.44633 19.1912 8.42478 19.1542C8.40323 19.1172 8.3898 19.0761 8.38537 19.0335C8.38094 18.9909 8.38561 18.9479 8.39908 18.9073C8.41255 18.8666 8.4345 18.8293 8.4635 18.7978L8.98296 18.0758L8.68773 17.8645L8.15875 18.599C8.05622 18.7423 8.01491 18.9203 8.04389 19.0939C8.07288 19.2676 8.16979 19.4226 8.31329 19.5249C8.4568 19.6272 8.63515 19.6685 8.80912 19.6395C8.98309 19.6106 9.13842 19.5139 9.24095 19.3707L9.76733 18.6362ZM10.8417 19.0864L10.4409 18.9257L9.33228 20.109L9.68291 20.2495L9.90846 19.998L10.4669 20.2218L10.4543 20.5588L10.8119 20.7022L10.8417 19.0864ZM10.5032 19.3365L10.4825 19.8775L10.1409 19.7405L10.5032 19.3365ZM11.6746 19.3594L11.3846 20.8483L11.7413 20.917L11.8495 20.3596L11.9019 20.3696L12.1876 21.0025L12.6126 21.0842L12.2941 20.4361C12.4089 20.4522 12.5256 20.4233 12.6196 20.3554C12.7135 20.2875 12.7774 20.1859 12.7979 20.0719C12.8126 20.0015 12.8114 19.9287 12.7945 19.8587C12.7776 19.7888 12.7453 19.7235 12.7001 19.6675C12.6548 19.6115 12.5977 19.5662 12.5328 19.5349C12.4679 19.5036 12.3969 19.4871 12.3248 19.4865L11.6746 19.3594ZM12.2577 19.8057C12.2831 19.8035 12.3088 19.8072 12.3325 19.8166C12.3563 19.8259 12.3775 19.8407 12.3946 19.8596C12.4117 19.8786 12.4241 19.9012 12.4309 19.9258C12.4378 19.9504 12.4388 19.9762 12.4339 20.0012C12.429 20.0262 12.4184 20.0498 12.4028 20.07C12.3873 20.0902 12.3672 20.1065 12.3443 20.1177C12.3213 20.1289 12.2961 20.1346 12.2705 20.1343C12.245 20.1341 12.2198 20.128 12.1971 20.1164L11.9079 20.0607L11.9685 19.75L12.2577 19.8057ZM14.1589 19.6912L13.726 19.6796L13.1009 21.1753L13.4793 21.1857L13.6035 20.8712L14.2061 20.888L14.3121 21.2086L14.6983 21.219L14.1589 19.6912ZM13.9286 20.0438L14.0983 20.5584L13.7295 20.5484L13.9286 20.0438ZM16.3185 19.3456L15.9636 19.4294L16.177 20.3303L15.2874 19.5889L14.9485 19.6688L15.2982 21.1455L15.6523 21.0621L15.4389 20.1613L16.3285 20.9027L16.6687 20.8228L16.3185 19.3456ZM17.6211 18.6975L16.5099 19.2834L16.6666 19.5785L17.0631 19.3694L17.6142 20.4063L17.9332 20.2378L17.3826 19.2009L17.7778 18.9922L17.6211 18.6975ZM19.4954 18.6803L18.892 19.1987L18.7115 18.9905L19.2768 18.5053L19.0656 18.2612L18.5003 18.7464L18.3301 18.5493L18.9301 18.0343L18.7184 17.7894L17.8449 18.539L18.8293 19.677L19.7058 18.9244L19.4954 18.6803ZM20.6391 17.3158L20.1452 17.9427L19.9288 17.7721L20.3911 17.1849L20.1357 16.9853L19.6729 17.5725L19.4664 17.4113L19.9578 16.7879L19.7015 16.5874L18.9864 17.4947L20.1798 18.4271L20.8954 17.5167L20.6391 17.3158Z" fill="white"/>
<path fill-rule="evenodd" clip-rule="evenodd" d="M6.43608 6.8575C6.36635 6.93853 6.31513 7.03279 6.28575 7.13413C6.25637 7.23548 6.24948 7.34165 6.26554 7.44576C6.28159 7.54986 6.32023 7.64957 6.37894 7.73841C6.43765 7.82725 6.51511 7.90322 6.60632 7.96141C6.69429 8.02474 6.79475 8.07017 6.90155 8.09493C7.00836 8.11968 7.11927 8.12323 7.22752 8.10537C7.33576 8.08752 7.43908 8.04861 7.53115 7.99105C7.62321 7.93349 7.70211 7.85848 7.76301 7.77059C7.82555 7.69158 7.87023 7.60088 7.8942 7.50428C7.91817 7.40768 7.92092 7.30731 7.90224 7.2096C7.88355 7.11189 7.84385 7.01901 7.7857 6.93688C7.72755 6.85475 7.65223 6.7852 7.56454 6.73267C7.53258 6.71042 7.49897 6.69047 7.46398 6.67296L7.01728 7.2577L7.25341 7.41954L7.47925 7.12289C7.54089 7.18634 7.57488 7.27011 7.5742 7.35692C7.57352 7.44373 7.53824 7.52696 7.47562 7.58943C7.43993 7.63646 7.39453 7.6759 7.34226 7.70528C7.28999 7.73466 7.23197 7.75335 7.17184 7.76018C7.1117 7.76701 7.05073 7.76183 6.99275 7.74497C6.93477 7.72812 6.88102 7.69994 6.83486 7.6622C6.78393 7.63294 6.73997 7.5937 6.70583 7.54702C6.6717 7.50035 6.64817 7.44729 6.63675 7.3913C6.62534 7.33532 6.6263 7.27765 6.63959 7.22207C6.65287 7.16648 6.67817 7.11422 6.71385 7.06868C6.74939 7.01877 6.79547 6.97665 6.8491 6.94506C6.90274 6.91347 6.9627 6.89313 7.02509 6.88537L6.96928 6.53146C6.86197 6.54795 6.7593 6.58538 6.66761 6.64145C6.57592 6.69752 6.49713 6.77104 6.43608 6.8575ZM8.41747 5.01632L8.12599 5.24709L8.71979 5.92261C8.751 5.95052 8.77519 5.98489 8.79055 6.02312C8.80591 6.06135 8.81202 6.10244 8.80843 6.14327C8.80484 6.1841 8.79164 6.22359 8.76982 6.25877C8.74801 6.29395 8.71814 6.32389 8.68251 6.34631C8.65235 6.37579 8.61573 6.39841 8.5753 6.41252C8.53488 6.42663 8.49168 6.43187 8.44886 6.42787C8.40605 6.42386 8.3647 6.41071 8.32783 6.38937C8.29097 6.36802 8.25951 6.33903 8.23577 6.30451L7.64242 5.629L7.35138 5.85934L7.95405 6.54568C8.0078 6.61718 8.07721 6.67644 8.15739 6.7193C8.23756 6.76216 8.32653 6.78755 8.41801 6.79369C8.50948 6.79982 8.60121 6.78656 8.68674 6.75482C8.77226 6.72308 8.84949 6.67364 8.91294 6.61001C8.99014 6.56336 9.05542 6.50057 9.10391 6.42629C9.1524 6.35202 9.18287 6.26819 9.19304 6.18101C9.20321 6.09383 9.19283 6.00556 9.16266 5.92274C9.13249 5.83993 9.08333 5.7647 9.0188 5.70265L8.41747 5.01632ZM9.77811 4.29604L9.37429 4.48463L9.5201 6.08503L9.87457 5.92012L9.83691 5.58699L10.4018 5.3244L10.6548 5.55732L11.0165 5.38817L9.77811 4.29604ZM9.73598 4.71153L10.1417 5.08498L9.79621 5.24566L9.73598 4.71153ZM10.8342 3.88167L11.1916 5.34655L11.5606 5.26346L11.4267 4.71456L11.4809 4.70252L12.0223 5.16003L12.4621 5.06202L11.8814 4.60204C11.9971 4.57118 12.0958 4.49815 12.1565 4.39845C12.2172 4.29875 12.2352 4.18021 12.2065 4.06795C12.1898 3.99781 12.1572 3.93208 12.111 3.87545C12.0648 3.81882 12.0062 3.7727 11.9394 3.74037C11.8725 3.70804 11.7991 3.69032 11.7243 3.68846C11.6495 3.68659 11.5753 3.70063 11.5068 3.72959L10.8342 3.88167ZM11.5799 4.04967C11.6029 4.03691 11.6287 4.02951 11.6552 4.02806C11.6818 4.02661 11.7083 4.03116 11.7327 4.04133C11.7571 4.0515 11.7786 4.06701 11.7957 4.08663C11.8127 4.10625 11.8248 4.12943 11.8308 4.15432C11.8369 4.1792 11.8368 4.20511 11.8306 4.22996C11.8244 4.25481 11.8123 4.27792 11.7952 4.29743C11.778 4.31695 11.7563 4.33233 11.7319 4.34235C11.7075 4.35237 11.6809 4.35675 11.6544 4.35514L11.3548 4.42201L11.2803 4.11654L11.5799 4.04967ZM13.6323 3.53653L13.1813 3.53296L12.5625 5.03315L12.9572 5.03626L13.0795 4.72159L13.708 4.72355L13.8254 5.03925L14.2277 5.04243L13.6323 3.53653ZM13.4002 3.89204L13.5885 4.3988L13.2041 4.39576L13.4002 3.89204ZM16.2234 3.94831L15.8553 3.85939L15.6141 4.75064L15.1538 3.69088L14.8022 3.60683L14.4068 5.06835L14.774 5.15726L15.0152 4.26558L15.4755 5.32534L15.828 5.40983L16.2234 3.94831ZM17.9126 4.71934L16.7444 4.15109L16.5834 4.44696L17.0003 4.64978L16.4352 5.6907L16.7705 5.85374L17.3361 4.81283L17.7516 5.01478L17.9126 4.71934ZM18.4977 6.63669L17.8497 6.1392L18.0329 5.92563L18.6391 6.39226L18.8538 6.14197L18.2477 5.67534L18.4209 5.47331L19.0644 5.96862L19.28 5.71747L18.3433 4.99624L17.3417 6.16529L18.282 6.88913L18.4977 6.63669ZM19.501 7.77643L18.9814 7.15912L19.2062 6.98888L19.6935 7.56681L19.9588 7.3655L19.4716 6.78758L19.6856 6.625L20.2026 7.23885L20.4688 7.03669L19.7157 6.14319L18.4777 7.08376L19.2329 7.98029L19.501 7.77643Z" fill="white"/>
<path d="M39.9496 13.2C40.283 13.3067 40.5496 13.4933 40.7496 13.76C40.9496 14.0267 41.0496 14.3533 41.0496 14.74C41.0496 15.28 40.843 15.7267 40.4296 16.08C40.0163 16.4267 39.4796 16.6 38.8196 16.6C38.1796 16.6 37.6696 16.4367 37.2896 16.11C36.9163 15.7767 36.7063 15.3167 36.6596 14.73H37.5396C37.5863 15.0567 37.713 15.3267 37.9196 15.54C38.1263 15.7467 38.423 15.85 38.8096 15.85C39.203 15.85 39.523 15.7433 39.7696 15.53C40.0163 15.3167 40.1396 15.0433 40.1396 14.71C40.1396 14.3767 40.023 14.1067 39.7896 13.9C39.563 13.6867 39.253 13.58 38.8596 13.58H38.2796V12.87H38.8196C39.1596 12.87 39.4296 12.7733 39.6296 12.58C39.8363 12.38 39.9396 12.1167 39.9396 11.79C39.9396 11.47 39.8363 11.2133 39.6296 11.02C39.423 10.82 39.153 10.72 38.8196 10.72C38.513 10.72 38.2496 10.8067 38.0296 10.98C37.8096 11.1533 37.6696 11.4 37.6096 11.72H36.7396C36.773 11.2 36.993 10.7833 37.3996 10.47C37.813 10.15 38.2963 9.99 38.8496 9.99C39.4096 9.99 39.8796 10.1533 40.2596 10.48C40.6396 10.8067 40.8296 11.2333 40.8296 11.76C40.8296 12.3867 40.5363 12.85 39.9496 13.15V13.2ZM44.6937 16.6C43.9737 16.6 43.397 16.3233 42.9637 15.77C42.537 15.21 42.3237 14.3833 42.3237 13.29C42.3237 12.21 42.537 11.39 42.9637 10.83C43.397 10.27 43.9737 9.99 44.6937 9.99C45.4137 9.99 45.9837 10.2733 46.4037 10.84C46.8304 11.4 47.0437 12.2233 47.0437 13.31C47.0437 14.3967 46.8304 15.2167 46.4037 15.77C45.977 16.3233 45.407 16.6 44.6937 16.6ZM44.6937 15.83C45.1204 15.83 45.4637 15.62 45.7237 15.2C45.9904 14.7733 46.1237 14.14 46.1237 13.3C46.1237 12.46 45.9904 11.8267 45.7237 11.4C45.457 10.9733 45.1104 10.76 44.6837 10.76C44.257 10.76 43.9104 10.9733 43.6437 11.4C43.3837 11.82 43.2537 12.4533 43.2537 13.3C43.2537 14.1467 43.3837 14.78 43.6437 15.2C43.9104 15.62 44.2604 15.83 44.6937 15.83ZM48.3137 13.01H51.9837V13.77H48.3137V13.01ZM56.8847 9.4H57.7547V16.5H57.0347L56.9547 15.79H56.8947C56.508 16.33 55.9714 16.6 55.2847 16.6C54.6114 16.6 54.058 16.36 53.6247 15.88C53.198 15.3933 52.9847 14.7633 52.9847 13.99C52.9847 13.21 53.198 12.5833 53.6247 12.11C54.058 11.6367 54.6114 11.4 55.2847 11.4C55.9914 11.4 56.5247 11.6533 56.8847 12.16V9.4ZM55.3947 15.83C55.8414 15.83 56.2014 15.6633 56.4747 15.33C56.748 14.99 56.8847 14.5433 56.8847 13.99C56.8847 13.45 56.748 13.0133 56.4747 12.68C56.2014 12.34 55.8414 12.17 55.3947 12.17C54.9414 12.17 54.5714 12.34 54.2847 12.68C53.998 13.0133 53.8547 13.45 53.8547 13.99C53.8547 14.5367 53.998 14.98 54.2847 15.32C54.5714 15.66 54.9414 15.83 55.3947 15.83ZM63.3796 15.82H63.5096V16.5H63.1096C62.6163 16.5 62.3196 16.2867 62.2196 15.86C61.833 16.3533 61.283 16.6 60.5696 16.6C60.0763 16.6 59.6763 16.48 59.3696 16.24C59.0696 15.9933 58.9196 15.6367 58.9196 15.17C58.9196 14.7167 59.073 14.3633 59.3796 14.11C59.693 13.85 60.1063 13.6933 60.6196 13.64L62.1096 13.5V13.22C62.1096 12.8733 62.0196 12.6033 61.8396 12.41C61.6596 12.2167 61.403 12.12 61.0696 12.12C60.4696 12.12 60.1096 12.4367 59.9896 13.07H59.1196C59.173 12.5767 59.3696 12.1767 59.7096 11.87C60.0563 11.5567 60.5096 11.4 61.0696 11.4C61.6496 11.4 62.113 11.56 62.4596 11.88C62.813 12.2 62.9896 12.6533 62.9896 13.24V15.41C62.9896 15.6833 63.1196 15.82 63.3796 15.82ZM62.1096 14.58V14.14L60.8996 14.26C60.5596 14.2933 60.2896 14.3833 60.0896 14.53C59.8963 14.6767 59.7996 14.88 59.7996 15.14C59.7996 15.4 59.883 15.5933 60.0496 15.72C60.2163 15.84 60.4296 15.9 60.6896 15.9C61.0696 15.9 61.3996 15.7933 61.6796 15.58C61.9663 15.36 62.1096 15.0267 62.1096 14.58ZM64.7696 18.6C64.563 18.6 64.3263 18.5633 64.0596 18.49V17.82C64.273 17.8667 64.453 17.89 64.5996 17.89C65.113 17.89 65.4696 17.6433 65.6696 17.15L65.9296 16.5H65.6296L63.7096 11.5H64.6196L66.1596 15.59H66.2296L67.6896 11.5H68.5996L66.4996 17.28C66.4596 17.4 66.4196 17.4967 66.3796 17.57C66.3463 17.65 66.283 17.76 66.1896 17.9C66.0963 18.0467 65.993 18.1633 65.8796 18.25C65.7663 18.3433 65.6096 18.4233 65.4096 18.49C65.2163 18.5633 65.003 18.6 64.7696 18.6ZM72.2074 16.5V11.5H72.9974L73.0774 12.1H73.1474C73.4674 11.6333 73.9174 11.4 74.4974 11.4C75.1574 11.4 75.6108 11.6933 75.8574 12.28H75.9174C76.2441 11.6933 76.7574 11.4 77.4574 11.4C77.9508 11.4 78.3474 11.55 78.6474 11.85C78.9474 12.15 79.0974 12.5833 79.0974 13.15V16.5H78.2174V13.32C78.2174 12.9467 78.1208 12.6633 77.9274 12.47C77.7341 12.27 77.4941 12.17 77.2074 12.17C76.8741 12.17 76.6041 12.29 76.3974 12.53C76.1908 12.7633 76.0874 13.07 76.0874 13.45V16.5H75.2074V13.39C75.2074 12.9967 75.1108 12.6967 74.9174 12.49C74.7308 12.2767 74.4908 12.17 74.1974 12.17C73.9041 12.17 73.6441 12.28 73.4174 12.5C73.1908 12.7133 73.0774 13.0233 73.0774 13.43V16.5H72.2074ZM82.7406 16.6C82.0206 16.6 81.4206 16.3533 80.9406 15.86C80.4672 15.36 80.2306 14.74 80.2306 14C80.2306 13.2467 80.4672 12.6267 80.9406 12.14C81.4139 11.6467 82.0139 11.4 82.7406 11.4C83.4606 11.4 84.0606 11.6467 84.5406 12.14C85.0206 12.6333 85.2606 13.2533 85.2606 14C85.2606 14.7467 85.0206 15.3667 84.5406 15.86C84.0672 16.3533 83.4672 16.6 82.7406 16.6ZM81.5606 15.3C81.8672 15.6533 82.2606 15.83 82.7406 15.83C83.2206 15.83 83.6139 15.6533 83.9206 15.3C84.2339 14.94 84.3906 14.5067 84.3906 14C84.3906 13.4867 84.2339 13.0533 83.9206 12.7C83.6139 12.3467 83.2206 12.17 82.7406 12.17C82.2539 12.17 81.8606 12.3467 81.5606 12.7C81.2606 13.0533 81.1106 13.4867 81.1106 14C81.1106 14.5067 81.2606 14.94 81.5606 15.3ZM86.4164 16.5V11.5H87.2064L87.2864 12.1H87.3564C87.6964 11.6333 88.1798 11.4 88.8064 11.4C89.3531 11.4 89.7931 11.57 90.1264 11.91C90.4598 12.25 90.6264 12.7333 90.6264 13.36V16.5H89.7564V13.55C89.7564 13.09 89.6464 12.7467 89.4264 12.52C89.2131 12.2867 88.9331 12.17 88.5864 12.17C88.2198 12.17 87.9098 12.2967 87.6564 12.55C87.4098 12.7967 87.2864 13.1633 87.2864 13.65V16.5H86.4164ZM96.374 13.9C96.374 13.9467 96.3673 14.05 96.354 14.21H92.624C92.6507 14.71 92.8007 15.1133 93.074 15.42C93.354 15.7267 93.724 15.88 94.184 15.88C94.5107 15.88 94.7873 15.81 95.014 15.67C95.2473 15.5233 95.4073 15.3133 95.494 15.04H96.344C96.2373 15.5333 95.9907 15.9167 95.604 16.19C95.2173 16.4633 94.744 16.6 94.184 16.6C93.4707 16.6 92.8873 16.3667 92.434 15.9C91.9807 15.4333 91.754 14.8167 91.754 14.05C91.754 13.2567 91.9807 12.6167 92.434 12.13C92.8873 11.6433 93.4573 11.4 94.144 11.4C94.784 11.4 95.314 11.6167 95.734 12.05C96.1607 12.4833 96.374 13.1 96.374 13.9ZM95.134 12.52C94.8807 12.2533 94.5507 12.12 94.144 12.12C93.7373 12.12 93.394 12.26 93.114 12.54C92.8407 12.8133 92.6807 13.1567 92.634 13.57H95.524C95.5173 13.1367 95.3873 12.7867 95.134 12.52ZM97.9239 18.6C97.7173 18.6 97.4806 18.5633 97.2139 18.49V17.82C97.4273 17.8667 97.6073 17.89 97.7539 17.89C98.2673 17.89 98.6239 17.6433 98.8239 17.15L99.0839 16.5H98.7839L96.8639 11.5H97.7739L99.3139 15.59H99.3839L100.844 11.5H101.754L99.6539 17.28C99.6139 17.4 99.5739 17.4967 99.5339 17.57C99.5006 17.65 99.4373 17.76 99.3439 17.9C99.2506 18.0467 99.1473 18.1633 99.0339 18.25C98.9206 18.3433 98.7639 18.4233 98.5639 18.49C98.3706 18.5633 98.1573 18.6 97.9239 18.6ZM102.308 13.01H105.978V13.77H102.308V13.01ZM109.55 11.4C110.224 11.4 110.774 11.6367 111.2 12.11C111.634 12.5833 111.85 13.21 111.85 13.99C111.85 14.7633 111.634 15.3933 111.2 15.88C110.774 16.36 110.224 16.6 109.55 16.6C108.864 16.6 108.327 16.33 107.94 15.79H107.88L107.8 16.5H107.08V9.4H107.95V12.16C108.31 11.6533 108.844 11.4 109.55 11.4ZM109.44 15.83C109.894 15.83 110.264 15.66 110.55 15.32C110.837 14.98 110.98 14.5367 110.98 13.99C110.98 13.45 110.837 13.0133 110.55 12.68C110.264 12.34 109.894 12.17 109.44 12.17C108.994 12.17 108.634 12.34 108.36 12.68C108.087 13.0133 107.95 13.45 107.95 13.99C107.95 14.5433 108.087 14.99 108.36 15.33C108.634 15.6633 108.994 15.83 109.44 15.83ZM117.198 15.82H117.328V16.5H116.928C116.435 16.5 116.138 16.2867 116.038 15.86C115.651 16.3533 115.101 16.6 114.388 16.6C113.895 16.6 113.495 16.48 113.188 16.24C112.888 15.9933 112.738 15.6367 112.738 15.17C112.738 14.7167 112.891 14.3633 113.198 14.11C113.511 13.85 113.925 13.6933 114.438 13.64L115.928 13.5V13.22C115.928 12.8733 115.838 12.6033 115.658 12.41C115.478 12.2167 115.221 12.12 114.888 12.12C114.288 12.12 113.928 12.4367 113.808 13.07H112.938C112.991 12.5767 113.188 12.1767 113.528 11.87C113.875 11.5567 114.328 11.4 114.888 11.4C115.468 11.4 115.931 11.56 116.278 11.88C116.631 12.2 116.808 12.6533 116.808 13.24V15.41C116.808 15.6833 116.938 15.82 117.198 15.82ZM115.928 14.58V14.14L114.718 14.26C114.378 14.2933 114.108 14.3833 113.908 14.53C113.715 14.6767 113.618 14.88 113.618 15.14C113.618 15.4 113.701 15.5933 113.868 15.72C114.035 15.84 114.248 15.9 114.508 15.9C114.888 15.9 115.218 15.7933 115.498 15.58C115.785 15.36 115.928 15.0267 115.928 14.58ZM120.484 16.6C119.738 16.6 119.134 16.3567 118.674 15.87C118.221 15.3833 117.994 14.77 117.994 14.03C117.994 13.27 118.228 12.6433 118.694 12.15C119.161 11.65 119.754 11.4 120.474 11.4C121.048 11.4 121.544 11.56 121.964 11.88C122.391 12.1933 122.648 12.63 122.734 13.19H121.854C121.788 12.8967 121.631 12.6533 121.384 12.46C121.138 12.2667 120.834 12.17 120.474 12.17C120.008 12.17 119.624 12.3467 119.324 12.7C119.024 13.0533 118.874 13.4967 118.874 14.03C118.874 14.55 119.021 14.98 119.314 15.32C119.608 15.66 119.998 15.83 120.484 15.83C121.204 15.83 121.668 15.51 121.874 14.87H122.754C122.661 15.3967 122.408 15.8167 121.994 16.13C121.588 16.4433 121.084 16.6 120.484 16.6ZM128.038 11.5L125.988 13.52L128.038 16.5H127.058L125.388 14.11L124.708 14.78V16.5H123.838V9.4H124.708V13.65H124.778L126.968 11.5H128.038ZM136.091 11.54C135.864 11.7733 135.584 11.9733 135.251 12.14C135.458 12.4267 135.561 12.7533 135.561 13.12C135.561 13.6333 135.384 14.0467 135.031 14.36C134.678 14.6667 134.228 14.82 133.681 14.82C133.361 14.82 133.061 14.7633 132.781 14.65C132.561 14.7633 132.451 14.9133 132.451 15.1C132.451 15.4067 132.691 15.56 133.171 15.56H134.151C134.704 15.56 135.131 15.6833 135.431 15.93C135.738 16.1767 135.891 16.5233 135.891 16.97C135.891 17.49 135.691 17.89 135.291 18.17C134.898 18.4567 134.374 18.6 133.721 18.6C133.028 18.6 132.491 18.44 132.111 18.12C131.731 17.8 131.514 17.39 131.461 16.89L132.301 16.18C132.101 16.1067 131.941 15.99 131.821 15.83C131.708 15.67 131.651 15.4833 131.651 15.27C131.651 14.8767 131.864 14.5667 132.291 14.34C131.944 14.0267 131.771 13.62 131.771 13.12C131.771 12.62 131.944 12.21 132.291 11.89C132.638 11.5633 133.091 11.4 133.651 11.4C134.091 11.4 134.471 11.5033 134.791 11.71C135.098 11.5567 135.368 11.3267 135.601 11.02L136.091 11.54ZM132.911 13.86C133.111 14.0533 133.368 14.15 133.681 14.15C133.994 14.15 134.244 14.0533 134.431 13.86C134.624 13.66 134.721 13.4133 134.721 13.12C134.721 12.8067 134.628 12.5533 134.441 12.36C134.254 12.1667 134.001 12.07 133.681 12.07C133.361 12.07 133.101 12.1667 132.901 12.36C132.708 12.5533 132.611 12.8067 132.611 13.12C132.611 13.4133 132.711 13.66 132.911 13.86ZM135.051 17.01C135.051 16.75 134.951 16.5633 134.751 16.45C134.551 16.33 134.321 16.27 134.061 16.27H133.181L132.331 16.98C132.491 17.6 132.954 17.91 133.721 17.91C134.094 17.91 134.408 17.8333 134.661 17.68C134.921 17.5267 135.051 17.3033 135.051 17.01ZM141.154 11.5V16.5H140.364L140.284 15.9H140.214C139.874 16.3667 139.39 16.6 138.764 16.6C138.217 16.6 137.777 16.43 137.444 16.09C137.11 15.75 136.944 15.2667 136.944 14.64V11.5H137.814V14.45C137.814 14.91 137.92 15.2567 138.134 15.49C138.354 15.7167 138.637 15.83 138.984 15.83C139.357 15.83 139.667 15.7067 139.914 15.46C140.16 15.2067 140.284 14.8367 140.284 14.35V11.5H141.154ZM146.788 15.82H146.918V16.5H146.518C146.025 16.5 145.728 16.2867 145.628 15.86C145.241 16.3533 144.691 16.6 143.978 16.6C143.485 16.6 143.085 16.48 142.778 16.24C142.478 15.9933 142.328 15.6367 142.328 15.17C142.328 14.7167 142.481 14.3633 142.788 14.11C143.101 13.85 143.515 13.6933 144.028 13.64L145.518 13.5V13.22C145.518 12.8733 145.428 12.6033 145.248 12.41C145.068 12.2167 144.811 12.12 144.478 12.12C143.878 12.12 143.518 12.4367 143.398 13.07H142.528C142.581 12.5767 142.778 12.1767 143.118 11.87C143.465 11.5567 143.918 11.4 144.478 11.4C145.058 11.4 145.521 11.56 145.868 11.88C146.221 12.2 146.398 12.6533 146.398 13.24V15.41C146.398 15.6833 146.528 15.82 146.788 15.82ZM145.518 14.58V14.14L144.308 14.26C143.968 14.2933 143.698 14.3833 143.498 14.53C143.305 14.6767 143.208 14.88 143.208 15.14C143.208 15.4 143.291 15.5933 143.458 15.72C143.625 15.84 143.838 15.9 144.098 15.9C144.478 15.9 144.808 15.7933 145.088 15.58C145.375 15.36 145.518 15.0267 145.518 14.58ZM147.872 16.5V11.5H148.662L148.742 12.19H148.812C148.958 11.9367 149.138 11.7433 149.352 11.61C149.565 11.47 149.862 11.4 150.242 11.4H150.532V12.28C150.432 12.2667 150.282 12.26 150.082 12.26C149.655 12.26 149.325 12.41 149.092 12.71C148.858 13.0033 148.742 13.3933 148.742 13.88V16.5H147.872ZM155.489 15.82H155.619V16.5H155.219C154.726 16.5 154.429 16.2867 154.329 15.86C153.942 16.3533 153.392 16.6 152.679 16.6C152.186 16.6 151.786 16.48 151.479 16.24C151.179 15.9933 151.029 15.6367 151.029 15.17C151.029 14.7167 151.182 14.3633 151.489 14.11C151.802 13.85 152.216 13.6933 152.729 13.64L154.219 13.5V13.22C154.219 12.8733 154.129 12.6033 153.949 12.41C153.769 12.2167 153.512 12.12 153.179 12.12C152.579 12.12 152.219 12.4367 152.099 13.07H151.229C151.282 12.5767 151.479 12.1767 151.819 11.87C152.166 11.5567 152.619 11.4 153.179 11.4C153.759 11.4 154.222 11.56 154.569 11.88C154.922 12.2 155.099 12.6533 155.099 13.24V15.41C155.099 15.6833 155.229 15.82 155.489 15.82ZM154.219 14.58V14.14L153.009 14.26C152.669 14.2933 152.399 14.3833 152.199 14.53C152.006 14.6767 151.909 14.88 151.909 15.14C151.909 15.4 151.992 15.5933 152.159 15.72C152.326 15.84 152.539 15.9 152.799 15.9C153.179 15.9 153.509 15.7933 153.789 15.58C154.076 15.36 154.219 15.0267 154.219 14.58ZM156.573 16.5V11.5H157.363L157.443 12.1H157.513C157.853 11.6333 158.336 11.4 158.963 11.4C159.509 11.4 159.949 11.57 160.283 11.91C160.616 12.25 160.783 12.7333 160.783 13.36V16.5H159.913V13.55C159.913 13.09 159.803 12.7467 159.583 12.52C159.369 12.2867 159.089 12.17 158.743 12.17C158.376 12.17 158.066 12.2967 157.813 12.55C157.566 12.7967 157.443 13.1633 157.443 13.65V16.5H156.573ZM163.852 16.6C163.379 16.6 163.045 16.4833 162.852 16.25C162.665 16.01 162.572 15.7167 162.572 15.37V12.21H161.512V11.5H161.852C162.145 11.5 162.352 11.4467 162.472 11.34C162.592 11.2267 162.652 11.0333 162.652 10.76V10.14H163.452V11.5H164.702V12.21H163.452V15.25C163.452 15.67 163.662 15.88 164.082 15.88C164.242 15.88 164.409 15.8533 164.582 15.8V16.49C164.315 16.5633 164.072 16.6 163.852 16.6ZM169.802 13.9C169.802 13.9467 169.795 14.05 169.782 14.21H166.052C166.078 14.71 166.228 15.1133 166.502 15.42C166.782 15.7267 167.152 15.88 167.612 15.88C167.938 15.88 168.215 15.81 168.442 15.67C168.675 15.5233 168.835 15.3133 168.922 15.04H169.772C169.665 15.5333 169.418 15.9167 169.032 16.19C168.645 16.4633 168.172 16.6 167.612 16.6C166.898 16.6 166.315 16.3667 165.862 15.9C165.408 15.4333 165.182 14.8167 165.182 14.05C165.182 13.2567 165.408 12.6167 165.862 12.13C166.315 11.6433 166.885 11.4 167.572 11.4C168.212 11.4 168.742 11.6167 169.162 12.05C169.588 12.4833 169.802 13.1 169.802 13.9ZM168.562 12.52C168.308 12.2533 167.978 12.12 167.572 12.12C167.165 12.12 166.822 12.26 166.542 12.54C166.268 12.8133 166.108 13.1567 166.062 13.57H168.952C168.945 13.1367 168.815 12.7867 168.562 12.52ZM175.368 13.9C175.368 13.9467 175.361 14.05 175.348 14.21H171.618C171.645 14.71 171.795 15.1133 172.068 15.42C172.348 15.7267 172.718 15.88 173.178 15.88C173.505 15.88 173.781 15.81 174.008 15.67C174.241 15.5233 174.401 15.3133 174.488 15.04H175.338C175.231 15.5333 174.985 15.9167 174.598 16.19C174.211 16.4633 173.738 16.6 173.178 16.6C172.465 16.6 171.881 16.3667 171.428 15.9C170.975 15.4333 170.748 14.8167 170.748 14.05C170.748 13.2567 170.975 12.6167 171.428 12.13C171.881 11.6433 172.451 11.4 173.138 11.4C173.778 11.4 174.308 11.6167 174.728 12.05C175.155 12.4833 175.368 13.1 175.368 13.9ZM174.128 12.52C173.875 12.2533 173.545 12.12 173.138 12.12C172.731 12.12 172.388 12.26 172.108 12.54C171.835 12.8133 171.675 13.1567 171.628 13.57H174.518C174.511 13.1367 174.381 12.7867 174.128 12.52Z" fill="#151D51"/>
</svg>
