<svg width="20" height="20" viewBox="0 0 20 20" fill="none" xmlns="http://www.w3.org/2000/svg">
<path d="M20 10C20 15.5228 15.5228 20 10 20C4.47715 20 0 15.5228 0 10C0 4.47715 4.47715 0 10 0C15.5228 0 20 4.47715 20 10Z" fill="#483FDD"/>
<mask id="mask0_0_2073" style="mask-type:alpha" maskUnits="userSpaceOnUse" x="0" y="0" width="20" height="20">
<path d="M20 10C20 15.5228 15.5228 20 10 20C4.47715 20 0 15.5228 0 10C0 4.47715 4.47715 0 10 0C15.5228 0 20 4.47715 20 10Z" fill="#483FDD"/>
</mask>
<g mask="url(#mask0_0_2073)">
<path d="M4.58402 6.24967C4.58402 5.3292 5.33021 4.58301 6.25069 4.58301H13.5424C14.4628 4.58301 15.209 5.3292 15.209 6.24967V19.9997C15.209 20.9201 14.4628 21.6663 13.5424 21.6663H6.25069C5.33021 21.6663 4.58402 20.9201 4.58402 19.9997V6.24967Z" fill="#5CD6C0"/>
<path fill-rule="evenodd" clip-rule="evenodd" d="M6.25032 3.33167H13.542C15.1528 3.33167 16.4587 4.6375 16.4587 6.24833V19.9983C16.4587 21.6092 15.1528 22.915 13.542 22.915H6.25032C4.63949 22.915 3.33366 21.6092 3.33366 19.9983V6.24833C3.33366 4.6375 4.63949 3.33167 6.25032 3.33167ZM6.25032 4.58167C5.32985 4.58167 4.58366 5.32786 4.58366 6.24833V19.9983C4.58366 20.9188 5.32985 21.665 6.25032 21.665H13.542C14.4625 21.665 15.2087 20.9188 15.2087 19.9983V6.24833C15.2087 5.32786 14.4625 4.58167 13.542 4.58167H6.25032Z" fill="white"/>
<path d="M11.26 12.69C11.9733 12.9567 12.33 13.4567 12.33 14.19C12.33 14.7367 12.1033 15.1933 11.65 15.56C11.2033 15.92 10.62 16.1 9.9 16.1C9.16666 16.1 8.59333 15.9167 8.18 15.55C7.77333 15.1833 7.55333 14.6867 7.52 14.06H8.81C8.92333 14.6933 9.28333 15.01 9.89 15.01C10.2167 15.01 10.48 14.9267 10.68 14.76C10.88 14.5867 10.98 14.3733 10.98 14.12C10.98 13.8333 10.88 13.61 10.68 13.45C10.48 13.29 10.2067 13.21 9.86 13.21H9.28V12.24H9.83C10.1367 12.24 10.38 12.1667 10.56 12.02C10.74 11.8667 10.83 11.6533 10.83 11.38C10.83 11.12 10.7433 10.9133 10.57 10.76C10.3967 10.6 10.17 10.52 9.89 10.52C9.63 10.52 9.40666 10.5933 9.22 10.74C9.04 10.88 8.92333 11.0833 8.87 11.35H7.61C7.63 10.7967 7.86333 10.35 8.31 10.01C8.76333 9.66332 9.30666 9.48999 9.94 9.48999C10.5467 9.48999 11.0633 9.65332 11.49 9.97999C11.9167 10.3 12.13 10.7367 12.13 11.29C12.13 11.8967 11.84 12.3433 11.26 12.63V12.69Z" fill="#151D51"/>
</g>
</svg>
