<svg width="14" height="19" viewBox="0 0 14 19" fill="none" xmlns="http://www.w3.org/2000/svg">
<rect x="0.691086" y="0.451035" width="12.6178" height="2.26223" rx="1.13112" fill="#151D51"/>
<rect x="0.691086" y="16.2867" width="12.6178" height="2.26223" rx="1.13112" fill="#151D51"/>
<path d="M8.81644 7.73514C8.2307 8.50133 8.1951 9.55462 8.72779 10.3586L11.4922 14.5309C11.9904 15.2828 11.4512 16.2868 10.5493 16.2868H3.4507C2.54874 16.2868 2.0096 15.2828 2.50778 14.5309L5.27218 10.3586C5.80487 9.55462 5.76928 8.50133 5.18353 7.73514L2.73433 4.53146C2.16531 3.78715 2.69603 2.71336 3.63293 2.71336H10.367C11.3039 2.71336 11.8347 3.78715 11.2656 4.53146L8.81644 7.73514Z" fill="#DFECFC"/>
<path d="M7.36751 8.05303C7.18512 8.29627 6.81953 8.294 6.64018 8.0485L4.87188 5.62795C4.65348 5.32901 4.867 4.90861 5.23722 4.90861L8.8205 4.90861C9.19331 4.90861 9.40614 5.33421 9.18249 5.63248L7.36751 8.05303Z" fill="#F5AC4C"/>
</svg>
